<svg class="svg-icon" style="width: 1em; height: 1em;vertical-align: middle;fill: currentColor;overflow: hidden;" viewBox="0 0 1024 1024" version="1.1" xmlns="http://www.w3.org/2000/svg"><path d="M316.348582 958.426882c77.329453 0 140.229343-62.911179 140.229343-140.227085V420.189055l336.549067-72.11169v274.0759c-28.04632-17.694333-52.559192-28.321771-84.136702-28.321771-77.318164 0-140.229343 62.913437-140.229343 140.229343 0 77.318164 62.89989 140.227085 140.229343 140.227085s140.227085-62.908921 140.227084-140.227085V89.006765a28.019227 28.019227 0 0 0-10.403915-21.799004 27.989875 27.989875 0 0 0-23.501381-5.615134L422.670371 145.729329a28.019227 28.019227 0 0 0-22.185086 27.416396V706.28771c-28.04632-17.692076-52.559192-28.321771-84.136703-28.321771-77.320422 0-140.229343 62.915694-140.229342 140.2316s62.908921 140.229343 140.229342 140.229343m392.641708-140.227085c-46.397672 0-84.13896-37.741289-84.13896-84.13896 0-46.395414 37.741289-84.13896 84.13896-84.13896 46.411218 0 84.136702 37.743546 84.136702 84.13896-0.002258 46.397672-37.727742 84.13896-84.136702 84.13896m84.134444-694.490735v166.98872l-336.549067 72.11169v-166.986462l336.549067-72.113948zM316.348582 734.060837c46.408961 0 84.136702 37.743546 84.136703 84.13896s-37.727742 84.136702-84.136703 84.136703c-46.395414 0-84.136702-37.741289-84.136702-84.136703s37.739031-84.13896 84.136702-84.13896" fill="#040000" /></svg>